<svg xmlns="http://www.w3.org/2000/svg" viewBox="0 0 16.38 16.38"><defs><style>.a{fill:#fff;}.b{fill:#302f2f;}</style></defs><title>icon</title><circle class="a" cx="8.19" cy="8.19" r="6.52"/><path class="b" d="M12,3.81A8.19,8.19,0,1,0,20.19,12,8.19,8.19,0,0,0,12,3.81Zm0,14.32V16.46A4.45,4.45,0,0,1,8.23,9.63l.82.81A3.28,3.28,0,0,0,8.66,12,3.35,3.35,0,0,0,12,15.34V13.67l2.23,2.23Zm3.77-3.76L15,13.56A3.28,3.28,0,0,0,15.34,12,3.35,3.35,0,0,0,12,8.66v1.67L9.77,8.1,12,5.87V7.54a4.45,4.45,0,0,1,3.77,6.83Z" transform="translate(-3.81 -3.81)"/></svg>