<?xml version="1.0" standalone="no"?>
<!DOCTYPE svg PUBLIC "-//W3C//DTD SVG 20010904//EN"
 "http://www.w3.org/TR/2001/REC-SVG-20010904/DTD/svg10.dtd">
<svg version="1.0" xmlns="http://www.w3.org/2000/svg"
 width="700.000000pt" height="700.000000pt" viewBox="0 0 700.000000 700.000000"
 preserveAspectRatio="xMidYMid meet">
<metadata>
Created by potrace 1.14, written by Peter Selinger 2001-2017
</metadata>
<g transform="translate(0.000000,700.000000) scale(0.100000,-0.100000)"
fill="#000000" stroke="none">
<path d="M3135 6985 c-687 -76 -1327 -344 -1864 -782 -224 -183 -503 -489
-660 -722 -337 -501 -534 -1038 -596 -1625 -18 -169 -20 -495 -4 -669 91
-1019 637 -1965 1475 -2553 500 -350 1097 -569 1704 -624 147 -13 472 -13 620
0 1023 92 1969 638 2555 1476 327 467 527 981 611 1569 21 152 30 578 14 747
-64 711 -334 1370 -787 1927 -119 146 -353 377 -506 499 -320 256 -692 460
-1072 589 -254 85 -502 140 -769 168 -177 18 -551 18 -721 0z m433 -1585 c151
0 360 -38 544 -100 304 -102 594 -292 805 -530 520 -585 631 -1415 282 -2115
-92 -186 -66 -185 -235 -10 -79 83 -151 159 -159 170 -13 19 -11 31 26 124
111 282 130 621 52 921 -124 482 -510 877 -989 1014 -101 29 -264 56 -341 56
l-53 0 0 -357 0 -358 -475 475 -475 475 472 473 473 472 3 -355 2 -355 68 0z
m-1503 -1068 l166 -164 -41 -95 c-373 -870 171 -1848 1105 -1988 55 -8 124
-15 153 -15 l52 0 0 357 0 358 475 -475 475 -475 -472 -473 -473 -472 -3 353
-2 354 -118 6 c-335 19 -651 125 -939 317 -468 311 -767 803 -834 1374 -16
138 -6 401 20 545 24 126 74 290 127 415 42 97 125 247 135 244 4 -2 82 -76
174 -166z"/>
</g>
</svg>
